# xmcd
#
# Track frame offsets:
#	150
#	13940
#	33491
#	52304
#
# Disc length: 944 seconds
#
# Revision: 0
# Processed by: cddbd v1.5.1PL2 Copyright (c) Steve Scherf et al.
# Submitted via: EasyCDDAExtractor 9.0.0.1
#
DISCID=3403ae04
DTITLE=Lauren Brede - Take Time
DYEAR=2005
DGENRE=Country
TTITLE0=Take Time
TTITLE1=Time for you to go
TTITLE2=Forgive my heart
TTITLE3=Yesterday
EXTD=
EXTT0=
EXTT1=
EXTT2=
EXTT3=
PLAYORDER=
